<svg height="464pt" viewBox="-4 0 464 464" width="464pt" xmlns="http://www.w3.org/2000/svg"><path d="m336 464c-17.671875 0-32-14.328125-32-32v-32h-272v-320h80v-80h256v432c0 17.671875-14.328125 32-32 32zm0 0" fill="#f4f4e6"/><path d="m112 80h-80l80-80zm0 0" fill="#cfdfe8"/><path d="m144 32h312v112h-312zm0 0" fill="#f9bb4b"/><path d="m32 464c-17.671875 0-32-14.328125-32-32v-32h304v32c0 17.671875 14.328125 32 32 32zm0 0" fill="#cfdfe8"/><path d="m56 104h16v16h-16zm0 0" fill="#87cee9"/><path d="m88 128h16v16h-16zm0 0" fill="#87cee9"/><path d="m328 376h16v16h-16zm0 0" fill="#87cee9"/><g fill="#394d5c"><path d="m168 56h16v64h-16zm0 0"/><path d="m176 80h32v16h-32zm0 0"/><path d="m200 56h16v64h-16zm0 0"/><path d="m232 56h48v16h-48zm0 0"/><path d="m248 64h16v56h-16zm0 0"/><path d="m376 120h-16v-48h-3.054688l-13.746093 27.574219c-1.503907 2.523437-4.222657 4.070312-7.160157 4.070312-2.933593 0-5.65625-1.546875-7.160156-4.070312l-13.824218-27.574219h-3.054688v48h-16v-56c0-4.417969 3.582031-8 8-8h16c3.046875-.015625 5.839844 1.699219 7.199219 4.425781l8.800781 17.6875 8.800781-17.6875c1.359375-2.726562 4.152344-4.441406 7.199219-4.425781h16c4.417969 0 8 3.582031 8 8zm0 0"/><path d="m432 120h-32c-4.417969 0-8-3.582031-8-8v-56h16v48h24zm0 0"/></g><path d="m64 328h112v16h-112zm0 0" fill="#eb8cb3"/><path d="m192 328h96v16h-96zm0 0" fill="#eb8cb3"/><path d="m64 360h80v16h-80zm0 0" fill="#eb8cb3"/><path d="m160 360h32v16h-32zm0 0" fill="#eb8cb3"/><path d="m208 360h96v16h-96zm0 0" fill="#eb8cb3"/><path d="m64 240 48 48 24-24-24-24 24-24-24-24zm0 0" fill="#c83528"/><path d="m336 240-48 48-24-24 24-24-24-24 24-24zm0 0" fill="#c83528"/><path d="m216 176-72 128h40l72-128zm0 0" fill="#c83528"/></svg>